<svg width="41" height="41" viewBox="0 0 41 41" fill="none" xmlns="http://www.w3.org/2000/svg">
<path fill-rule="evenodd" clip-rule="evenodd" d="M30.9986 14.0861C32.0576 13.3844 32.9263 12.4312 33.5268 11.3116C34.1274 10.1921 34.4411 8.94126 34.44 7.67084C34.44 3.44016 31.0255 0 26.8268 0H13.7645C9.56584 0 6.15003 3.44272 6.15003 7.67212C6.1489 8.94237 6.46265 10.1931 7.06322 11.3124C7.66378 12.4317 8.53244 13.3847 9.59146 14.0861C8.53267 14.7876 7.66427 15.7407 7.06394 16.8599C6.4636 17.9792 6.15004 19.2299 6.15131 20.5C6.15018 21.7702 6.46393 23.021 7.0645 24.1403C7.66507 25.2596 8.53372 26.2125 9.59275 26.9139C8.5333 27.6153 7.66428 28.5684 7.06348 29.688C6.46267 30.8075 6.14883 32.0586 6.15003 33.3292C6.15003 37.5598 9.58378 41 13.8055 41C18.0721 41 21.5417 37.5214 21.5417 33.2459V28.1708L21.543 26.1747C22.9378 27.4587 24.7644 28.1713 26.6603 28.1708H26.8268C31.0255 28.1708 34.44 24.7294 34.44 20.5C34.4412 19.2298 34.1274 17.979 33.5268 16.8597C32.9263 15.7404 32.0576 14.7875 30.9986 14.0861ZM26.6628 15.3417C23.839 15.3417 21.543 17.6569 21.543 20.5C21.543 23.3431 23.8415 25.657 26.6628 25.657H26.8294C29.652 25.657 31.9467 23.3431 31.9467 20.5C31.9467 17.6569 29.6494 15.343 26.8281 15.343H26.6616L26.6628 15.3417ZM19.0497 20.3373C19.0473 20.4457 19.0473 20.5543 19.0497 20.6627V25.657H13.7645C10.9432 25.657 8.6459 23.3431 8.6459 20.5C8.6459 17.6569 10.9419 15.343 13.7645 15.343H19.0497V20.3373ZM21.543 12.8292H26.8268C29.6494 12.8292 31.9454 10.5152 31.9454 7.67212C31.9454 4.82903 29.6482 2.51509 26.8268 2.51509H21.543V12.8292ZM19.0484 2.51253H13.7645C10.9419 2.51253 8.6459 4.82775 8.6459 7.67084C8.6459 10.5127 10.9419 12.8292 13.7645 12.8292H19.0471L19.0484 2.51253ZM19.0509 28.1708H13.7645C13.0915 28.172 12.4254 28.3061 11.8044 28.5656C11.1835 28.825 10.62 29.2047 10.1462 29.6827C9.42779 30.406 8.93954 31.3259 8.74304 32.3263C8.54654 33.3266 8.65058 34.3628 9.04205 35.3042C9.43353 36.2455 10.0949 37.0499 10.9428 37.6159C11.7908 38.182 12.7873 38.4843 13.8068 38.4849C15.1965 38.4836 16.529 37.9311 17.5121 36.9488C18.4952 35.9664 19.0486 34.6343 19.0509 33.2446V28.1708Z" fill="#383838"/>
</svg>
