<svg width="41" height="41" viewBox="0 0 41 41" fill="none" xmlns="http://www.w3.org/2000/svg">
<path d="M37.8379 6.00393C35.8129 3.98353 33.0685 2.84985 30.208 2.85205C27.3481 2.85265 24.6048 3.98591 22.5782 6.00393L21.4046 7.17499C21.1644 7.41441 20.8391 7.54884 20.5 7.54884C20.1609 7.54884 19.8356 7.41441 19.5954 7.17499L18.4205 6.00393C16.3945 3.98508 13.6508 2.85167 10.7907 2.85205C7.93053 2.85167 5.18686 3.98508 3.16084 6.00393C2.15935 7.00149 1.36462 8.18692 0.82221 9.49226C0.279803 10.7976 0.000392829 12.1972 0 13.6107C0 16.4641 1.13647 19.2008 3.16084 21.2175L5.23903 23.2906L19.5954 37.6021C19.8356 37.8415 20.1609 37.976 20.5 37.976C20.8391 37.976 21.1644 37.8415 21.4046 37.6021L35.7597 23.2906L37.8379 21.2175C38.8391 20.2197 39.6337 19.0342 40.1763 17.7289C40.7189 16.4237 40.9988 15.0243 41 13.6107C41.0002 12.197 40.721 10.7971 40.1783 9.49166C39.6356 8.18621 38.8402 7.00092 37.8379 6.00393Z" fill="#383838"/>
</svg>
