<svg width="224" height="180" viewBox="0 0 224 180" fill="none" xmlns="http://www.w3.org/2000/svg">
<path d="M168.5 73V73C169.895 81.4681 176.532 88.1052 185 89.5V89.5V89.5C176.532 90.8948 169.895 97.5319 168.5 106V106V106C167.105 97.5319 160.468 90.8948 152 89.5V89.5V89.5C160.468 88.1052 167.105 81.4681 168.5 73V73Z" fill="white"/>
<path d="M57.45 120.3L82.8 51.15L70.05 38.25H101.4L90.9 51.6L55.05 144H47.85L8.25 47.1L0.45 38.25H41.4L29.4 47.4L55.5 113.25L57.45 120.3Z" fill="white"/>
<path d="M106.75 143L122.35 131V47.45L106.75 35.3H157.9C187.75 35.3 216.4 51.2 216.4 89.45C216.4 119.3 196.9 143.3 156.7 143.3C131.05 143.3 130.6 143 130.6 143H106.75ZM153.55 43.7H143.35V134.75H156.55C181.15 134.75 192.4 117.5 192.4 90.95C192.4 64.25 180.4 43.7 153.55 43.7Z" fill="white"/>
</svg>
