<svg width="76" height="60" viewBox="0 0 76 60" fill="none" xmlns="http://www.w3.org/2000/svg">
<path d="M57 26V26C57.3381 28.0529 58.9471 29.6619 61 30V30V30C58.9471 30.3381 57.3381 31.9471 57 34V34V34C56.6619 31.9471 55.0529 30.3381 53 30V30V30C55.0529 29.6619 56.6619 28.0529 57 26V26Z" fill="white"/>
<path d="M19.15 40.1L27.6 17.05L23.35 12.75H33.8L30.3 17.2L18.35 48H15.95L2.75 15.7L0.15 12.75H13.8L9.8 15.8L18.5 37.75L19.15 40.1Z" fill="white"/>
<path d="M36.25 48L41.45 44V16.15L36.25 12.1H53.3C63.25 12.1 72.8 17.4 72.8 30.15C72.8 40.1 66.3 48.1 52.9 48.1C44.35 48.1 44.2 48 44.2 48H36.25ZM51.85 14.9H48.45V45.25H52.85C61.05 45.25 64.8 39.5 64.8 30.65C64.8 21.75 60.8 14.9 51.85 14.9Z" fill="white"/>
</svg>
