<svg width="39" height="39" viewBox="0 0 39 39" fill="none" xmlns="http://www.w3.org/2000/svg">
<path d="M28.9282 13.9082C28.9282 13.9082 25.7656 23.8264 25.5072 24.6454C24.7114 18.4298 23.907 12.2142 23.0965 5.99854C17.7072 5.99854 14.8261 9.83516 13.3039 13.8838L9.13575 24.6698C9.11137 23.8971 8.55075 14.0008 8.55075 14.0008C8.21925 9.04053 3.67575 6.02047 0 6.02047L4.45087 32.9999C10.0961 32.9756 13.1406 29.1621 14.7335 25.1146C14.7335 25.1146 18.1301 16.3408 18.2703 15.9423C18.2947 16.3165 20.7078 32.9975 20.7078 32.9975C26.375 32.9975 29.4206 29.4193 31.0586 25.5119L39 6.02291C33.4023 6.02291 30.4505 9.83516 28.9282 13.9058V13.9082Z" fill="#383838"/>
</svg>
